<?xml version="1.0" encoding="utf-8"?>
<!-- Generator: Adobe Illustrator 16.0.0, SVG Export Plug-In . SVG Version: 6.00 Build 0)  -->
<!DOCTYPE svg PUBLIC "-//W3C//DTD SVG 1.1//EN" "http://www.w3.org/Graphics/SVG/1.1/DTD/svg11.dtd">
<svg version="1.1" xmlns="http://www.w3.org/2000/svg" xmlns:xlink="http://www.w3.org/1999/xlink" x="0px" y="0px" width="1024px"
	 height="1024px" viewBox="0 0 1024 1024" enable-background="new 0 0 1024 1024" xml:space="preserve">
<g id="svg439" inkscape:version="1.1.2 (0a00cf5339, 2022-02-04)" sodipodi:docname="cocktails-ai.svg" xmlns:svg="http://www.w3.org/2000/svg" xmlns:inkscape="http://www.inkscape.org/namespaces/inkscape" xmlns:sodipodi="http://sodipodi.sourceforge.net/DTD/sodipodi-0.dtd" display="none">
	
		<sodipodi:namedview  id="namedview441" inkscape:window-maximized="1" inkscape:pageshadow="2" inkscape:window-width="1920" inkscape:pageopacity="0.0" inkscape:window-y="27" inkscape:window-x="0" inkscape:current-layer="svg439" inkscape:window-height="957" inkscape:pagecheckerboard="0" inkscape:zoom="0.73046875" pagecolor="#ffffff" bordercolor="#666666" showgrid="false" inkscape:cx="511.31551" inkscape:cy="512" borderopacity="1.0">
		</sodipodi:namedview>
	<g id="g253" display="inline">
		<path id="path251" fill="#FEFAFA" d="M-0.5,9.5C0.333,346,0.833,682.666,1,1019.5c0.374,0.92,0.874,1.75,1.5,2.5
			c1.882,0.2,3.548,0.7,5,1.5c-2.667,0-5.334,0-8,0C-0.5,685.5-0.5,347.5-0.5,9.5z"/>
	</g>
	<g id="g257" display="inline">
		<path id="path255" fill="#0C0C0A" d="M769.5,173.5c-2.175-0.42-4.175-0.42-6,0c-1.346-0.847-2.346-2.013-3-3.5
			c-3.209-0.878-6.209-2.211-9-4c-2.099-0.014-3.932,0.153-5.5,0.5c-2.734-0.862-2.901-1.695-0.5-2.5c-0.5-0.167-1-0.333-1.5-0.5
			c-2.453,0.993-4.953,1.16-7.5,0.5c-6.088-2.357-12.421-4.024-19-5c1.332-0.333,2.666-0.667,4-1c-4.668-0.667-9.334-1.333-14-2
			c-134.006-0.797-268.006-0.63-402,0.5c2.805-0.819,5.805-1.319,9-1.5c132.332-0.667,264.666-0.667,397,0
			C732.312,156.883,751.646,163.05,769.5,173.5z"/>
	</g>
	<g id="g261" display="inline">
		<path id="path259" fill="#00000A" d="M769.5,173.5c22.695,12.023,41.362,28.69,56,50c13.521,21.056,22.021,44.056,25.5,69
			c0.5,134,0.666,268,0.5,402c0,6,0,12,0,18c-2.461,22.055-8.794,43.055-19,63c-26.562,44.837-65.895,70.504-118,77
			c-134,0.167-268,0-402-0.5c-5.327-0.943-10.66-1.777-16-2.5c-21.429-4.251-41.095-12.585-59-25
			c-35.981-26.593-57.148-62.26-63.5-107c-1.152-70.812-1.652-141.646-1.5-212.5c0.003-68.54,0.337-137.04,1-205.5
			c2.9-9.02,5.067-18.353,6.5-28c3.62-10.693,7.12-21.36,10.5-32c13.22-27.057,32.887-48.224,59-63.5
			c17.405-10.183,36.071-16.683,56-19.5c133.994-1.13,267.994-1.297,402-0.5c4.666,0.667,9.332,1.333,14,2
			c-1.334,0.333-2.668,0.667-4,1c6.579,0.976,12.912,2.643,19,5c2.547,0.66,5.047,0.493,7.5-0.5c0.5,0.167,1,0.333,1.5,0.5
			c-2.401,0.805-2.234,1.638,0.5,2.5c1.568-0.347,3.401-0.514,5.5-0.5c2.791,1.789,5.791,3.122,9,4c0.654,1.487,1.654,2.653,3,3.5
			C765.325,173.08,767.325,173.08,769.5,173.5z"/>
	</g>
	<g id="g265" display="inline">
		<path id="path263" fill="#FBF8F3" d="M775.5,285.5c0.284,7.591,1.784,14.924,4.5,22c0.5,128,0.666,256,0.5,384
			c-2.25,36.676-18.584,65.176-49,85.5c-5.905,3.12-11.905,5.954-18,8.5c-9.478,2.952-19.145,5.119-29,6.5
			c-113.668,0.667-227.334,0.667-341,0c-20.806-1.434-39.806-7.934-57-19.5c-25.904-19.789-40.404-46.122-43.5-79
			c-0.667-127-0.667-254,0-381c4.81-43.803,27.31-74.637,67.5-92.5c9.399-3.433,19.066-5.767,29-7
			c114.666-0.667,229.332-0.667,344,0C729.103,218.457,759.769,242.624,775.5,285.5z"/>
	</g>
	<g id="g269" display="inline">
		<path id="path267" fill="#1B1D1C" d="M190.5,239.5c-3.38,10.64-6.88,21.307-10.5,32c-1.433,9.647-3.6,18.98-6.5,28
			C174.747,278.11,180.414,258.11,190.5,239.5z"/>
	</g>
	<g id="g273" display="inline">
		<path id="path271" fill="#05070E" d="M369.5,256.5c3.106-0.149,6.106,0.351,9,1.5c5.197,5.533,10.697,10.7,16.5,15.5
			c5.93,10.459,2.93,17.126-9,20c-2.321-0.409-4.487-1.243-6.5-2.5c-5.135-6.135-10.635-11.969-16.5-17.5
			C360.148,265.876,362.315,260.209,369.5,256.5z"/>
	</g>
	<g id="g277" display="inline">
		<path id="path275" fill="#03040C" d="M645.5,257.5c12.704-0.807,17.537,4.86,14.5,17c-10.23,10.899-21.063,21.066-32.5,30.5
			c-7.219,1.481-12.053-1.353-14.5-8.5c-0.756-2.803-0.423-5.47,1-8C624.395,277.937,634.895,267.604,645.5,257.5z"/>
	</g>
	<g id="g281" display="inline">
		<path id="path279" fill="#02030D" d="M701.5,258.5c12.762-0.754,17.595,4.912,14.5,17c-19.195,18.862-38.029,38.028-56.5,57.5
			c-8.844,4.977-15.011,2.811-18.5-6.5c-0.756-2.803-0.423-5.47,1-8C662.089,298.578,681.923,278.578,701.5,258.5z"/>
	</g>
	<g id="g285" display="inline">
		<path id="path283" fill="#03040D" d="M313.5,258.5c4.877-0.688,9.21,0.479,13,3.5c17.471,18.472,35.305,36.638,53.5,54.5
			c3.586,5.82,3.086,11.32-1.5,16.5c-4.171,2.788-8.504,3.121-13,1c-19.529-19.195-38.695-38.695-57.5-58.5
			C304.787,268.129,306.619,262.462,313.5,258.5z"/>
	</g>
	<g id="g289" display="inline">
		<path id="path287" fill="#02020C" d="M633.5,356.5c0,1.333,0,2.667,0,4c3,0,6,0,9,0c2.317,0.318,3.651,1.652,4,4
			c-1.175,4.487-3.508,8.154-7,11c0.064-0.438-0.102-0.772-0.5-1c-1.168,1.667-2.334,3.333-3.5,5c-83.331,1-166.664,1.333-250,1
			c-3.392-4.428-6.559-9.094-9.5-14c-0.973-2.794-0.14-4.794,2.5-6c16.666,0,33.332,0,50,0c0.33-24.172-0.003-48.172-1-72
			c-7.393-14.462-3.393-23.796,12-28c12.242,1.747,17.409,8.747,15.5,21c-1.08,2.496-2.414,4.83-4,7
			c-0.5,23.998-0.668,47.998-0.5,72c6.332,0,12.666,0,19,0c-0.166-10.339,0-20.672,0.5-31c4.633-5.635,9.633-10.968,15-16
			c-1.1-11.901,4.234-18.901,16-21c13.105,1.763,18.439,9.097,16,22c-2.773,6.44-7.606,10.274-14.5,11.5
			c-3.869,3.534-7.369,7.367-10.5,11.5c-0.5,7.659-0.666,15.326-0.5,23c13.332,0,26.666,0,40,0c3.924-17.438,14.258-29.604,31-36.5
			c18.744-5.22,36.411-2.887,53,7C624.088,337.676,630.088,346.176,633.5,356.5z"/>
	</g>
	<g id="g293" display="inline">
		<path id="path291" fill="#03040F" d="M565.5,260.5c9.347-2.077,15.847,1.256,19.5,10c1.312,8.874-2.188,15.04-10.5,18.5
			c-8.259,1.452-14.092-1.714-17.5-9.5c-0.768-4.094-0.435-8.094,1-12C560.396,264.933,562.896,262.6,565.5,260.5z"/>
	</g>
	<g id="g297" display="inline">
		<path id="path295" fill="#03050D" d="M317.5,318.5c14.976,1.288,19.81,8.954,14.5,23c-6.811,7.019-14.145,7.686-22,2
			C303.304,332.083,305.804,323.75,317.5,318.5z"/>
	</g>
	<g id="g301" display="inline">
		<path id="path299" fill="#04060E" d="M699.5,318.5c14.851-0.326,20.684,6.674,17.5,21c-5.5,8.164-12.668,9.998-21.5,5.5
			c-5.627-6.541-6.461-13.708-2.5-21.5C695.325,321.934,697.491,320.268,699.5,318.5z"/>
	</g>
	<g id="g305" display="inline">
		<path id="path303" fill="#BEBDB7" d="M427.5,288.5c0.997,23.828,1.33,47.828,1,72c-16.668,0-33.334,0-50,0
			c16.157-0.996,32.49-1.33,49-1C427.5,335.833,427.5,312.167,427.5,288.5z"/>
	</g>
	<g id="g309" display="inline">
		<path id="path307" fill="#F9F8F5" d="M609.5,357.5c-8.642,1.332-17.642,1.998-27,2c-9.174,0-18.174-0.334-27-1
			c7.276-12.635,18.276-17.801,33-15.5C597.614,344.974,604.614,349.807,609.5,357.5z"/>
	</g>
	<g id="g313" display="inline">
		<path id="path311" fill="#B7BFB2" d="M609.5,357.5c0.978,0.311,1.645,0.978,2,2c-19,1.333-38,1.333-57,0
			c0.123-0.607,0.456-0.94,1-1c8.826,0.666,17.826,1,27,1C591.859,359.498,600.859,358.832,609.5,357.5z"/>
	</g>
	<g id="g317" display="inline">
		<path id="path315" fill="#677167" d="M633.5,356.5c0.903,0.709,1.236,1.709,1,3c2.885-0.306,5.552,0.027,8,1c-3,0-6,0-9,0
			C633.5,359.167,633.5,357.833,633.5,356.5z"/>
	</g>
	<g id="g321" display="inline">
		<path id="path319" fill="#021210" d="M639.5,375.5c-0.742,1.926-1.742,3.759-3,5.5c-83.834,0.832-167.502,0.666-251-0.5
			c83.336,0.333,166.669,0,250-1c1.166-1.667,2.332-3.333,3.5-5C639.399,374.728,639.565,375.062,639.5,375.5z"/>
	</g>
	<g id="g325" display="inline">
		<path id="path323" fill="#02030C" d="M434.5,585.5c0.981-3.462,1.314-7.129,1-11c-41,0-82,0-123,0
			c-8.632-2.717-11.466-8.383-8.5-17c2.099-2.297,4.599-3.964,7.5-5c41.332,0,82.666,0,124,0c0.325-8.184-0.009-16.184-1-24
			c-8.205-12.385-17.038-24.385-26.5-36c-5.823,6.979-11.156,14.312-16,22c-2.527,2.527-5.027,5.027-7.5,7.5
			c-18.668,0.333-37.334,0.667-56,1c-8.351,7.433-16.518,7.267-24.5-0.5c-4.562-7.76-4.562-15.427,0-23
			c8.636-6.786,17.136-6.62,25.5,0.5c15,0.667,30,0.667,45,0c6.456-9.08,12.789-18.246,19-27.5
			c-15.809-20.976-31.809-41.809-48-62.5c-8.752-1.442-17.085-0.442-25,3c-9.241,1.629-15.741-1.871-19.5-10.5
			c-2.33-16.002,4.503-23.169,20.5-21.5c3.481,1.244,6.481,3.244,9,6c8.768,0.058,17.435,0.725,26,2
			c29.883,38.215,59.383,76.715,88.5,115.5c4.36,3.027,8.026,6.694,11,11c0.666,26,0.666,52,0,78
			c-10.082,13.42-20.915,26.253-32.5,38.5c-8.21,4.486-14.043,2.319-17.5-6.5c-0.668-2-0.668-4,0-6
			C415.364,607.976,424.864,596.643,434.5,585.5z"/>
	</g>
	<g id="g329" display="inline">
		<path id="path327" fill="#02030C" d="M581.5,533.5c-0.544,0.06-0.877,0.393-1,1c9.31,0.998,18.643,1.332,28,1
			c2.093,0.545,4.093,1.378,6,2.5c7.491,6.714,15.491,12.381,24,17c17.5-22.833,35-45.667,52.5-68.5
			c2.266-11.889,9.433-17.055,21.5-15.5c10.974,4.451,14.474,12.284,10.5,23.5c-3.866,5.854-9.366,9.021-16.5,9.5
			c-19.215,23.546-38.049,47.379-56.5,71.5c-5.893,5.466-12.393,6.299-19.5,2.5c-8.822-6.911-17.822-13.577-27-20
			c-16.334-0.333-32.668-0.667-49-1c-6.408-3.323-8.575-8.489-6.5-15.5c27.718-36.05,55.051-72.384,82-109
			c1.214-1.549,2.714-2.715,4.5-3.5c12.666-0.333,25.332-0.667,38-1c7.192-8.226,14.026-16.726,20.5-25.5
			c-1.882-17.78,5.952-24.614,23.5-20.5c8.788,6.8,10.288,14.966,4.5,24.5c-2.786,3.388-6.119,6.054-10,8
			c-8.229,11.951-17.062,23.451-26.5,34.5c-13.586,1.133-27.253,1.966-41,2.5C622.823,478.863,602.157,506.196,581.5,533.5z"/>
	</g>
	<g id="g333" display="inline">
		<path id="path331" fill="#01020B" d="M615.5,409.5c-1.518,0.011-2.685,0.677-3.5,2c-29.529,40.424-59.029,80.758-88.5,121
			c-0.283,0.789-0.783,1.456-1.5,2c-0.668,53.333-0.668,106.667,0,160c6.832,6.167,13.666,12.333,20.5,18.5
			c6.441,0.083,12.774,0.749,19,2c6.846,6.736,6.513,13.07-1,19c-33.668,0.667-67.334,0.667-101,0c-6.912-5.443-7.579-11.443-2-18
			c6.559-1.255,13.226-1.922,20-2c7.071-6.617,14.238-13.117,21.5-19.5c0.666-53.333,0.666-106.667,0-160
			c-34.324-42.799-66.824-86.799-97.5-132c72.666,0,145.332,0,218,0C619.445,405.614,618.112,407.948,615.5,409.5z"/>
	</g>
	<g id="g337" display="inline">
		<path id="path335" fill="#F7F8F6" d="M504.5,416.5c6.231-0.561,12.231,0.272,18,2.5c1.166,1.167,2.332,2.333,3.5,3.5
			c2.059,9.353,4.226,18.686,6.5,28c7.307-2.074,14.14-5.074,20.5-9c5.022,1.042,6.689,4.042,5,9c-2.56,3.031-5.727,5.198-9.5,6.5
			c-4.968,1.933-9.968,3.767-15,5.5c1.408,9.015,1.241,18.015-0.5,27c-7.873,15.561-19.707,19.727-35.5,12.5
			c-12.132-11.192-15.465-24.692-10-40.5c-7.842-1.417-15.175-4.25-22-8.5c-3.416-3.469-3.75-7.136-1-11
			c5.003-0.389,9.336,1.277,13,5c3.53,1.606,7.197,2.772,11,3.5c2.472-8.821,4.305-17.821,5.5-27
			C496.334,419.26,499.834,416.927,504.5,416.5z"/>
	</g>
	<g id="g341" display="inline">
		<path id="path339" fill="#0C0F14" d="M504.5,428.5c3.682-0.165,7.348,0.001,11,0.5c0.5,0.5,1,1,1.5,1.5
			c1.537,7.596,2.37,15.263,2.5,23c-6,0-12,0-18,0C502.018,445.1,503.018,436.766,504.5,428.5z"/>
	</g>
	<g id="g345" display="inline">
		<path id="path343" fill="#05060E" d="M316.5,440.5c9.347-2.077,15.847,1.256,19.5,10c0.518,12.815-5.649,18.982-18.5,18.5
			c-9.909-5.395-12.409-13.228-7.5-23.5C311.965,443.45,314.132,441.783,316.5,440.5z"/>
	</g>
	<g id="g349" display="inline">
		<path id="path347" fill="#0F110F" d="M615.5,409.5c-22.491,30.971-44.991,61.971-67.5,93c-7.469,10.621-15.635,20.621-24.5,30
			c29.471-40.242,58.971-80.576,88.5-121C612.816,410.177,613.983,409.511,615.5,409.5z"/>
	</g>
	<g id="g357" display="inline">
		<path id="path355" fill="#0A0C13" d="M498.5,464.5c8.332,0,16.666,0,25,0c0.627,7.552-0.206,14.885-2.5,22
			c-9.768,10.379-17.434,9.046-23-4C497.254,476.449,497.421,470.449,498.5,464.5z"/>
	</g>
	<g id="g365" display="inline">
		<path id="path363" fill="#8E9C8B" d="M581.5,533.5c9,0.667,18,1.333,27,2c-9.357,0.332-18.69-0.002-28-1
			C580.623,533.893,580.956,533.56,581.5,533.5z"/>
	</g>
	<g id="g369" display="inline">
		<path id="path367" fill="#03050D" d="M698.5,544.5c14.623-1.876,21.123,4.458,19.5,19c-3.726,7.699-9.893,10.866-18.5,9.5
			c-8.079-4.554-10.913-11.387-8.5-20.5C693.028,549.308,695.528,546.641,698.5,544.5z"/>
	</g>
	<g id="g373" display="inline">
		<path id="path371" fill="#BDC5BA" d="M434.5,528.5c0.991,7.816,1.325,15.816,1,24c-41.334,0-82.668,0-124,0
			c40.829-0.999,81.829-1.332,123-1C434.5,543.833,434.5,536.167,434.5,528.5z"/>
	</g>
	<g id="g377" display="inline">
		<path id="path375" fill="#CECDC0" d="M775.5,285.5c2.743,6.297,4.576,12.964,5.5,20c0.832,128.834,0.666,257.501-0.5,386
			c0.166-128,0-256-0.5-384C777.284,300.424,775.784,293.091,775.5,285.5z"/>
	</g>
	<g id="g381" display="inline">
		<path id="path379" fill="#C1C5C6" d="M312.5,574.5c41,0,82,0,123,0c0.314,3.871-0.019,7.538-1,11c0-3.333,0-6.667,0-10
			C393.662,575.832,352.996,575.499,312.5,574.5z"/>
	</g>
	<g id="g385" display="inline">
		<path id="path383" fill="#02030C" d="M576.5,589.5c17.685-1.829,30.351,5.171,38,21c26.659,1.167,53.326,1.333,80,0.5
			c9.482-7.746,18.316-6.913,26.5,2.5c5.214,14.903,0.047,23.903-15.5,27c-4.811-0.637-8.811-2.804-12-6.5
			c-26.341-0.833-52.674-0.667-79,0.5c-7.627,15.15-19.961,21.983-37,20.5c-21.023-7.209-29.19-21.709-24.5-43.5
			C557.803,600.862,565.636,593.528,576.5,589.5z"/>
	</g>
	<g id="g389" display="inline">
		<path id="path387" fill="#03040D" d="M380.5,592.5c4.617-0.576,8.784,0.424,12.5,3c0.896,5.449,0.562,10.782-1,16
			c-32.547,7.767-44.547,27.767-36,60c10.675,19.456,26.842,26.29,48.5,20.5c17.981-7.454,26.814-20.954,26.5-40.5
			c5.558-6.424,12.058-7.591,19.5-3.5c1.2,0.903,2.034,2.069,2.5,3.5c-0.78,36.118-18.947,57.618-54.5,64.5
			c-35.511,1.148-58.011-15.352-67.5-49.5c-4.046-33.742,9.454-57.575,40.5-71.5C374.628,594.159,377.628,593.325,380.5,592.5z"/>
	</g>
	<g id="g393" display="inline">
		<path id="path391" fill="#F6F6F4" d="M579.5,611.5c11.312-0.521,16.145,4.811,14.5,16c-3.436,5.294-8.269,7.127-14.5,5.5
			c-5.674-3.682-7.508-8.849-5.5-15.5C575.36,614.977,577.193,612.977,579.5,611.5z"/>
	</g>
	<g id="g397" display="inline">
		<path id="path395" fill="#02030C" d="M623.5,665.5c25.332,0.165,37.5,12.831,36.5,38c-5.347,18.771-17.847,27.271-37.5,25.5
			c-19.492-6.462-27.658-19.962-24.5-40.5C602.615,676.379,611.115,668.712,623.5,665.5z"/>
	</g>
	<g id="g401" display="inline">
		<path id="path399" fill="#04060F" d="M700.5,676.5c15.319,1.142,20.153,8.808,14.5,23c-7.116,7.306-14.45,7.639-22,1
			C687.075,689.987,689.575,681.987,700.5,676.5z"/>
	</g>
	<g id="g405" display="inline">
		<path id="path403" fill="#F5F5F2" d="M624.5,687.5c9.351-1.133,14.184,2.867,14.5,12c-2.535,6.018-7.035,8.518-13.5,7.5
			c-5.609-3.277-7.442-8.11-5.5-14.5C621.706,690.963,623.206,689.296,624.5,687.5z"/>
	</g>
	<g id="g409" display="inline">
		<path id="path407" fill="#06080F" d="M316.5,708.5c15.831,0.646,20.998,8.312,15.5,23c-10,9-18.334,7.667-25-4
			C305.555,718.798,308.722,712.465,316.5,708.5z"/>
	</g>
	<g id="g413" display="inline">
		<path id="path411" fill="#030504" d="M286.5,772.5c17.194,11.566,36.194,18.066,57,19.5c113.666,0.667,227.332,0.667,341,0
			c9.855-1.381,19.522-3.548,29-6.5c-0.382,1.431-1.382,2.264-3,2.5c-6.887,2.138-13.887,3.805-21,5
			c-16.574,0.174-33.074,0.674-49.5,1.5c-94.508-1.206-188.508-1.206-282,0c-7.391-0.598-14.724-1.264-22-2
			c-0.562,0.521-1.229,0.855-2,1c-3.308-1.503-6.808-2.503-10.5-3c-0.692,0.525-1.192,1.192-1.5,2c-2.734-0.862-2.901-1.695-0.5-2.5
			c-1.941-0.743-3.774-0.576-5.5,0.5c-1.067-0.691-2.234-1.191-3.5-1.5c0.666-0.333,1.332-0.667,2-1
			c-3.168-1.167-6.334-2.333-9.5-3.5c-0.333,0.667-0.667,1.333-1,2c-5.003-4.429-10.503-8.262-16.5-11.5
			C286.748,774.329,286.414,773.496,286.5,772.5z"/>
	</g>
</g>
<g id="Calque_2">
	<rect x="154.5" y="137.5" opacity="0.2" fill="#FF0000" width="745" height="782"/>
</g>
<g id="Calque_3">
	
		<line fill="none" stroke="#1800FF" stroke-width="22" stroke-linecap="round" stroke-linejoin="round" stroke-miterlimit="10" x1="315.5" y1="268.5" x2="372" y2="325"/>
	
		<line fill="none" stroke="#1800FF" stroke-width="22" stroke-linecap="round" stroke-linejoin="round" stroke-miterlimit="10" x1="649.562" y1="268.501" x2="624.564" y2="293.5"/>
	
		<line fill="none" stroke="#1800FF" stroke-width="22" stroke-linecap="round" stroke-linejoin="round" stroke-miterlimit="10" x1="372.77" y1="267.232" x2="387.53" y2="281.993"/>
	
		<line fill="none" stroke="#1800FF" stroke-width="22" stroke-linecap="round" stroke-linejoin="round" stroke-miterlimit="10" x1="706.627" y1="268.873" x2="651.14" y2="324.36"/>
	
		<rect x="320.5" y="333.5" fill="none" stroke="#1800FF" stroke-width="28" stroke-linecap="round" stroke-linejoin="round" stroke-miterlimit="10" width="0" height="0"/>
	
		<rect x="571" y="275" fill="none" stroke="#1800FF" stroke-width="28" stroke-linecap="round" stroke-linejoin="round" stroke-miterlimit="10" width="0" height="0"/>
	
		<rect x="440" y="276.5" fill="none" stroke="#1800FF" stroke-width="30" stroke-linecap="round" stroke-linejoin="round" stroke-miterlimit="10" width="0" height="0"/>
	
		<rect x="501.5" y="309" fill="none" stroke="#1800FF" stroke-width="32" stroke-linecap="round" stroke-linejoin="round" stroke-miterlimit="10" width="0" height="0"/>
	
		<rect x="705" y="333" fill="none" stroke="#1800FF" stroke-width="28" stroke-linecap="round" stroke-linejoin="round" stroke-miterlimit="10" width="0" height="0"/>
	
		<rect x="708" y="396.5" fill="none" stroke="#1800FF" stroke-width="31" stroke-linecap="round" stroke-linejoin="round" stroke-miterlimit="10" width="0" height="0"/>
	
		<rect x="709" y="487" fill="none" stroke="#1800FF" stroke-width="32" stroke-linecap="round" stroke-linejoin="round" stroke-miterlimit="10" width="0" height="0"/>
	
		<rect x="704" y="558.5" fill="none" stroke="#1800FF" stroke-width="28" stroke-linecap="round" stroke-linejoin="round" stroke-miterlimit="10" width="0" height="0"/>
	
		<rect x="707.5" y="623" fill="none" stroke="#1800FF" stroke-width="34" stroke-linecap="round" stroke-linejoin="round" stroke-miterlimit="10" width="0" height="0"/>
	
		<rect x="703.5" y="690" fill="none" stroke="#1800FF" stroke-width="28" stroke-linecap="round" stroke-linejoin="round" stroke-miterlimit="10" width="0" height="0"/>
	
		<rect x="320" y="722.5" fill="none" stroke="#1800FF" stroke-width="28" stroke-linecap="round" stroke-linejoin="round" stroke-miterlimit="10" width="0" height="0"/>
	
		<rect x="322" y="454" fill="none" stroke="#1800FF" stroke-width="28" stroke-linecap="round" stroke-linejoin="round" stroke-miterlimit="10" width="0" height="0"/>
	
		<rect x="316.5" y="396.5" fill="none" stroke="#1800FF" stroke-width="32" stroke-linecap="round" stroke-linejoin="round" stroke-miterlimit="10" width="0" height="0"/>
	
		<rect x="315.5" y="511.5" fill="none" stroke="#1800FF" stroke-width="33" stroke-linecap="round" stroke-linejoin="round" stroke-miterlimit="10" width="0" height="0"/>
	
		<line fill="none" stroke="#1800FF" stroke-width="22" stroke-linecap="round" stroke-linejoin="round" stroke-miterlimit="10" x1="439.5" y1="281" x2="439.5" y2="369"/>
	
		<polyline fill="none" stroke="#1800FF" stroke-width="22" stroke-linecap="round" stroke-linejoin="round" stroke-miterlimit="10" points="
		480,369.5 480,334.5 502.5,311.5 	"/>
	
		<line fill="none" stroke="#1800FF" stroke-width="22" stroke-linecap="round" stroke-linejoin="round" stroke-miterlimit="10" x1="390.001" y1="370" x2="633.001" y2="370"/>
	
		<polygon fill="none" stroke="#1800FF" stroke-width="22" stroke-linecap="round" stroke-linejoin="round" stroke-miterlimit="10" points="
		418.5,412 603.501,412 510.5,530 	"/>
	<path fill="none" stroke="#1800FF" stroke-width="22" stroke-linecap="round" stroke-linejoin="round" stroke-miterlimit="10" d="
		M541.5,366c0,0,5.5-33,40.5-33s45.5,35,45.5,35"/>
	
		<polyline fill="none" stroke="#1800FF" stroke-width="22" stroke-linecap="round" stroke-linejoin="round" stroke-miterlimit="10" points="
		319,397.5 350.5,397.5 444,520 445,591.5 418,621 	"/>
	
		<polyline fill="none" stroke="#1800FF" stroke-width="22" stroke-linecap="round" stroke-linejoin="round" stroke-miterlimit="10" points="
		406.5,475 379.5,511.5 326,511.5 	"/>
	
		<line fill="none" stroke="#1800FF" stroke-width="22" stroke-linecap="round" stroke-linejoin="round" stroke-miterlimit="10" x1="443.5" y1="563" x2="314.5" y2="563"/>
	<path fill="none" stroke="#1800FF" stroke-width="22" stroke-linecap="round" stroke-linejoin="round" stroke-miterlimit="10" d="
		M442.207,660.026C439.479,685.594,418.042,705.5,392,705.5c-27.891,0-50.5-22.833-50.5-51c0-25.227,18.136-46.176,41.959-50.274"/>
	
		<polyline fill="none" stroke="#1800FF" stroke-width="22" stroke-linecap="round" stroke-linejoin="round" stroke-miterlimit="10" points="
		706.5,403 680,438 638,439 558,545 607.5,547 639,568.5 702.5,491.5 	"/>
	
		<ellipse fill="none" stroke="#1800FF" stroke-width="22" stroke-linecap="round" stroke-linejoin="round" stroke-miterlimit="10" cx="584" cy="622.25" rx="22.5" ry="22.75"/>
	
		<ellipse fill="none" stroke="#1800FF" stroke-width="22" stroke-linecap="round" stroke-linejoin="round" stroke-miterlimit="10" cx="629.035" cy="696.849" rx="21.005" ry="21.239"/>
	
		<line fill="none" stroke="#1800FF" stroke-width="22" stroke-linecap="round" stroke-linejoin="round" stroke-miterlimit="10" x1="606.5" y1="622.25" x2="701" y2="622.25"/>
	
		<line fill="none" stroke="#1800FF" stroke-width="22" stroke-linecap="round" stroke-linejoin="round" stroke-miterlimit="10" x1="510" y1="527" x2="510.5" y2="720.5"/>
	
		<line fill="none" stroke="#1800FF" stroke-width="22" stroke-linecap="round" stroke-linejoin="round" stroke-miterlimit="10" x1="466" y1="724" x2="554" y2="724"/>
	
		<polyline fill="none" stroke="#1800FF" stroke-width="22" stroke-linecap="round" stroke-linejoin="round" stroke-miterlimit="10" points="
		490.5,717 510.5,700 531.5,717.5 	"/>
	
		<polygon fill="#1800FF" stroke="#1800FF" stroke-width="22" stroke-linecap="round" stroke-linejoin="round" stroke-miterlimit="10" points="
		418.5,412 603.501,412 510.5,530 	"/>
</g>
</svg>
